<svg width="24" height="24" viewBox="0 0 24 24" fill="none" xmlns="http://www.w3.org/2000/svg">
<path d="M7.21502 9.92999C6.83252 9.92999 6.51752 10.245 6.51752 10.6275V11.325C6.51752 11.7075 6.83252 12.0225 7.21502 12.0225C7.59752 12.0225 7.91252 11.7075 7.91252 11.325V10.6275C7.91252 10.2375 7.59752 9.92999 7.21502 9.92999ZM8.90252 14.3025C8.90252 13.92 9.21752 13.605 9.60002 13.605C9.99002 13.605 10.2975 13.92 10.2975 14.3025V15C10.2975 15.3825 9.98252 15.6975 9.60002 15.6975C9.21752 15.6975 8.90252 15.3825 8.90252 15V14.3025ZM14.3775 13.605C13.995 13.605 13.68 13.92 13.68 14.3025V15C13.68 15.3825 13.995 15.6975 14.3775 15.6975C14.76 15.6975 15.075 15.3825 15.075 15V14.3025C15.075 13.92 14.7675 13.605 14.3775 13.605ZM11.295 10.6275C11.295 10.245 11.61 9.92999 11.9925 9.92999C12.375 9.92999 12.69 10.2375 12.69 10.6275V11.325C12.69 11.7075 12.375 12.0225 11.9925 12.0225C11.61 12.0225 11.295 11.7075 11.295 11.325V10.6275ZM11.295 17.715C11.295 17.3325 11.61 17.0175 11.9925 17.0175C12.375 17.0175 12.69 17.3325 12.69 17.715V18.4125C12.69 18.795 12.375 19.11 11.9925 19.11C11.61 19.11 11.295 18.795 11.295 18.4125V17.715ZM16.08 10.6275C16.08 10.245 16.395 9.92999 16.7775 9.92999C17.16 9.92999 17.475 10.2375 17.475 10.6275V11.325C17.475 11.7075 17.16 12.0225 16.7775 12.0225C16.395 12.0225 16.08 11.7075 16.08 11.325V10.6275Z" fill="#EEEEEE"/>
<path d="M12.735 2.25C12.735 2.05109 12.656 1.86032 12.5153 1.71967C12.3747 1.57902 12.1839 1.5 11.985 1.5C11.7861 1.5 11.5953 1.57902 11.4547 1.71967C11.314 1.86032 11.235 2.05109 11.235 2.25V3.75H8.685C7.40437 3.75119 6.17654 4.26045 5.27099 5.16599C4.36545 6.07153 3.85619 7.29937 3.855 8.58V9.33H4.33425C3.27525 12.012 3.58425 15.2415 5.81925 17.7757L9.77325 22.2547C10.0505 22.5676 10.391 22.818 10.7722 22.9895C11.1534 23.161 11.5666 23.2497 11.9846 23.2497C12.4026 23.2497 12.8159 23.161 13.1971 22.9895C13.5783 22.818 13.9187 22.5676 14.196 22.2547L18.1493 17.7757C20.3843 15.2415 20.6933 12.012 19.6343 9.33H20.1068V8.58C20.1068 7.29913 19.598 6.07072 18.6923 5.16494C17.7867 4.25916 16.5584 3.7502 15.2775 3.75H12.735V2.25ZM5.9745 9.33H8.75925C9.94889 9.33174 11.097 8.89275 11.982 8.09775C12.8663 8.89199 14.0132 9.33093 15.2018 9.33H17.994C19.1355 11.6182 19.0065 14.535 17.0243 16.7835L13.0733 21.2603C12.9367 21.4142 12.7691 21.5374 12.5815 21.6218C12.3938 21.7062 12.1904 21.7499 11.9846 21.7499C11.7789 21.7499 11.5754 21.7062 11.3878 21.6218C11.2001 21.5374 11.0325 21.4142 10.896 21.2603L6.9435 16.7835C4.962 14.535 4.833 11.6182 5.9745 9.33Z" fill="#EEEEEE"/>
</svg>
