<svg width="30" height="30" viewBox="0 0 30 30" fill="none" xmlns="http://www.w3.org/2000/svg">
<path d="M10.9879 6.97932L20.1899 1.66666L23.2646 6.99266L10.9879 6.97932Z" stroke="#212121" stroke-width="2" stroke-linecap="round" stroke-linejoin="round"/>
<path d="M1.66663 8.33333C1.66663 7.97971 1.8071 7.64057 2.05715 7.39052C2.3072 7.14048 2.64634 7 2.99996 7H27C27.3536 7 27.6927 7.14048 27.9428 7.39052C28.1928 7.64057 28.3333 7.97971 28.3333 8.33333V27C28.3333 27.3536 28.1928 27.6928 27.9428 27.9428C27.6927 28.1929 27.3536 28.3333 27 28.3333H2.99996C2.64634 28.3333 2.3072 28.1929 2.05715 27.9428C1.8071 27.6928 1.66663 27.3536 1.66663 27V8.33333Z" stroke="#212121" stroke-width="2" stroke-linejoin="round"/>
<path d="M22.5 21H28.3333V14.3333H22.5C20.5667 14.3333 19 15.826 19 17.6666C19 19.5073 20.5667 21 22.5 21Z" stroke="#212121" stroke-width="2" stroke-linejoin="round"/>
<path d="M28.3333 10V26" stroke="#212121" stroke-width="2" stroke-linecap="round"/>
</svg>
